<svg width="420" height="294" viewBox="0 0 420 294" fill="none" xmlns="http://www.w3.org/2000/svg">
<path d="M84.4694 488.441C63.2387 409.207 84.6892 320.622 135.468 245.394C186.244 170.17 266.317 108.349 362.248 82.6444C365.144 81.8682 368.674 80.878 372.764 79.7306C404.812 70.7406 471.254 52.1025 537.05 51.1623C574.144 50.6323 610.984 55.7297 641.318 71.3175C671.633 86.8949 695.478 112.962 706.595 154.448C708.815 162.734 710.969 170.672 713.033 178.28C721.344 208.908 728.209 234.211 732.168 255.549C737.11 282.189 737.499 302.547 730.57 319.292C723.649 336.019 709.384 349.235 684.796 361.493C660.201 373.754 625.339 385.025 577.314 397.893C481.262 423.63 360.098 454.343 261.856 474.538C212.732 484.636 169.356 492.101 137.721 495.001C121.899 496.451 109.043 496.757 99.8813 495.689C95.2985 495.155 91.6738 494.28 89.0734 493.054C86.4731 491.829 84.9636 490.285 84.4694 488.441Z" stroke="#EF421A"/>
</svg>
