<svg width="20" height="20" viewBox="0 0 20 20" fill="none" xmlns="http://www.w3.org/2000/svg">
<path d="M10.0025 0H9.9975C4.48375 0 0 4.485 0 10C0 12.1875 0.705 14.215 1.90375 15.8612L0.6575 19.5763L4.50125 18.3475C6.0825 19.395 7.96875 20 10.0025 20C15.5162 20 20 15.5138 20 10C20 4.48625 15.5162 0 10.0025 0Z" fill="#0A0A0A"/>
<path d="M15.8214 14.1207C15.5801 14.802 14.6226 15.367 13.8589 15.532C13.3364 15.6432 12.6539 15.732 10.3564 14.7795C7.41762 13.562 5.52512 10.5757 5.37762 10.382C5.23637 10.1882 4.19012 8.80074 4.19012 7.36574C4.19012 5.93074 4.91887 5.23199 5.21262 4.93199C5.45387 4.68574 5.85262 4.57324 6.23512 4.57324C6.35887 4.57324 6.47012 4.57949 6.57012 4.58449C6.86387 4.59699 7.01137 4.61449 7.20512 5.07824C7.44637 5.65949 8.03387 7.09449 8.10387 7.24199C8.17512 7.38949 8.24637 7.58949 8.14637 7.78324C8.05262 7.98324 7.97012 8.07199 7.82262 8.24199C7.67512 8.41199 7.53512 8.54199 7.38762 8.72449C7.25262 8.88324 7.10012 9.05324 7.27012 9.34699C7.44012 9.63449 8.02762 10.5932 8.89262 11.3632C10.0089 12.357 10.9139 12.6745 11.2376 12.8095C11.4789 12.9095 11.7664 12.8857 11.9426 12.6982C12.1664 12.457 12.4426 12.057 12.7239 11.6632C12.9239 11.3807 13.1764 11.3457 13.4414 11.4457C13.7114 11.5395 15.1401 12.2457 15.4339 12.392C15.7276 12.5395 15.9214 12.6095 15.9926 12.7332C16.0626 12.857 16.0626 13.4382 15.8214 14.1207Z" fill="#FAFAFA"/>
</svg>
