<svg width="1464" height="2235" viewBox="0 0 1464 2235" fill="none" xmlns="http://www.w3.org/2000/svg">
<g opacity="0.3">
<path d="M469.335 717.398C726.957 738.635 491.933 957.369 684.058 1096.85C860.13 1224.69 1183.09 966.854 1210.44 1349.27C1229.16 1611.09 1309.59 1711.16 1521.22 1775.29" stroke="#D3D3D3" stroke-width="1.18846"/>
<path d="M481.559 703.834C739.181 725.071 504.156 943.805 696.282 1083.29C872.353 1211.12 1195.31 953.29 1222.66 1335.7C1241.39 1597.52 1321.82 1697.6 1533.45 1761.73" stroke="#D3D3D3" stroke-width="1.18846"/>
<path d="M493.783 690.27C751.405 711.507 516.38 930.24 708.505 1069.73C884.577 1197.56 1207.54 939.726 1234.89 1322.14C1253.61 1583.96 1334.04 1684.04 1545.67 1748.17" stroke="#D3D3D3" stroke-width="1.18846"/>
<path d="M506.007 676.705C763.628 697.942 528.604 916.676 720.729 1056.16C896.801 1183.99 1219.76 926.161 1247.11 1308.58C1265.83 1570.39 1346.26 1670.47 1557.89 1734.6" stroke="#D3D3D3" stroke-width="1.18846"/>
<path d="M518.23 663.141C775.852 684.378 540.828 903.112 732.953 1042.6C909.025 1170.43 1231.98 912.597 1259.33 1295.01C1278.06 1556.83 1358.49 1656.91 1570.12 1721.04" stroke="#D3D3D3" stroke-width="1.18846"/>
<path d="M530.454 649.577C788.076 670.814 553.051 889.547 745.177 1029.03C921.248 1156.86 1244.21 899.033 1271.56 1281.45C1290.28 1543.27 1370.71 1643.34 1582.34 1707.47" stroke="#D3D3D3" stroke-width="1.18846"/>
<path d="M542.678 636.012C800.299 657.249 565.275 875.983 757.4 1015.47C933.472 1143.3 1256.43 885.468 1283.78 1267.88C1302.5 1529.7 1382.94 1629.78 1594.57 1693.91" stroke="#D3D3D3" stroke-width="1.18846"/>
<path d="M554.901 622.448C812.523 643.685 577.499 862.418 769.624 1001.9C945.696 1129.73 1268.65 871.904 1296 1254.32C1314.73 1516.14 1395.16 1616.21 1606.79 1680.34" stroke="#D3D3D3" stroke-width="1.18846"/>
<path d="M567.125 608.883C824.747 630.12 589.723 848.854 781.848 988.34C957.92 1116.17 1280.88 858.339 1308.23 1240.75C1326.95 1502.57 1407.38 1602.65 1619.01 1666.78" stroke="#D3D3D3" stroke-width="1.18846"/>
<path d="M579.349 595.319C836.971 616.556 601.947 835.29 794.072 974.776C970.143 1102.61 1293.1 844.775 1320.45 1227.19C1339.18 1489.01 1419.61 1589.09 1631.24 1653.22" stroke="#D3D3D3" stroke-width="1.18846"/>
<path d="M591.573 581.755C849.194 602.992 614.17 821.726 806.295 961.211C982.367 1089.04 1305.33 831.211 1332.67 1213.63C1351.4 1475.44 1431.83 1575.52 1643.46 1639.65" stroke="#D3D3D3" stroke-width="1.18846"/>
<path d="M603.796 568.19C861.418 589.427 626.394 808.161 818.519 947.647C994.591 1075.48 1317.55 817.647 1344.9 1200.06C1363.62 1461.88 1444.05 1561.96 1655.68 1626.09" stroke="#D3D3D3" stroke-width="1.18846"/>
<path d="M616.02 554.626C873.642 575.863 638.618 794.597 830.743 934.082C1006.81 1061.91 1329.77 804.082 1357.12 1186.5C1375.85 1448.31 1456.28 1548.39 1667.91 1612.52" stroke="#D3D3D3" stroke-width="1.18846"/>
<path d="M628.244 541.062C885.866 562.299 650.841 781.032 842.967 920.518C1019.04 1048.35 1342 790.518 1369.35 1172.93C1388.07 1434.75 1468.5 1534.83 1680.13 1598.96" stroke="#D3D3D3" stroke-width="1.18846"/>
<path d="M640.467 527.498C898.089 548.735 663.065 767.468 855.19 906.954C1031.26 1034.78 1354.22 776.954 1381.57 1159.37C1400.29 1421.19 1480.73 1521.26 1692.36 1585.39" stroke="#D3D3D3" stroke-width="1.18846"/>
<path d="M652.691 513.933C910.313 535.17 675.289 753.904 867.414 893.389C1043.49 1021.22 1366.44 763.389 1393.79 1145.8C1412.52 1407.62 1492.95 1507.7 1704.58 1571.83" stroke="#D3D3D3" stroke-width="1.18846"/>
<path d="M664.915 500.369C922.537 521.606 687.513 740.339 879.638 879.825C1055.71 1007.66 1378.67 749.825 1406.02 1132.24C1424.74 1394.06 1505.17 1494.13 1716.8 1558.27" stroke="#D3D3D3" stroke-width="1.18846"/>
<path d="M677.139 486.804C934.76 508.041 699.736 726.775 891.861 866.261C1067.93 994.091 1390.89 736.26 1418.24 1118.67C1436.97 1380.49 1517.4 1480.57 1729.03 1544.7" stroke="#D3D3D3" stroke-width="1.18846"/>
<path d="M689.363 473.24C946.984 494.477 711.96 713.21 904.085 852.696C1080.16 980.527 1403.12 722.696 1430.46 1105.11C1449.19 1366.93 1529.62 1467.01 1741.25 1531.14" stroke="#D3D3D3" stroke-width="1.18846"/>
<path d="M701.586 459.675C959.208 480.912 724.184 699.646 916.309 839.132C1092.38 966.962 1415.34 709.131 1442.69 1091.55C1461.41 1353.36 1541.84 1453.44 1753.47 1517.57" stroke="#D3D3D3" stroke-width="1.18846"/>
</g>
</svg>
