<svg width="89" height="61" viewBox="0 0 89 61" fill="none" xmlns="http://www.w3.org/2000/svg">
<path d="M86.1318 39.716C85.4662 37.5547 84.2797 35.5319 82.7092 33.8794C81.1282 32.2158 79.1483 30.9484 77.0104 30.1812L77.0074 30.1801L84.3469 40.2658M86.1318 39.716L84.3469 40.2658M86.1318 39.716C86.1318 39.7158 86.1317 39.7156 86.1316 39.7154L84.3469 40.2658M86.1318 39.716C86.81 41.9154 86.9484 44.2578 86.5644 46.5047C86.1798 48.7545 85.2608 50.9223 83.8927 52.7596M84.3469 40.2658C84.937 42.1795 85.0591 44.2255 84.7234 46.1901C84.3876 48.1547 83.5837 50.048 82.3932 51.6461M83.8927 52.7596C83.8933 52.7589 83.8938 52.7581 83.8944 52.7573L82.3932 51.6461M83.8927 52.7596C82.5299 54.5999 80.7376 56.1141 78.6944 57.142C76.6947 58.1479 74.4611 58.6944 72.216 58.7148M83.8927 52.7596C83.8921 52.7604 83.8916 52.7611 83.891 52.7619L82.3932 51.6461M82.3932 51.6461L72.216 58.7148M72.216 58.7148L72.307 58.6875C72.2955 58.691 72.2097 58.7154 72.0856 58.7154C72.1291 58.7154 72.1725 58.7152 72.216 58.7148ZM72.216 58.7148L72.0444 58.7663H71.7702H17.0576H16.7833L16.616 58.7161M72.216 58.7148L71.7702 56.8986H17.0576C16.9558 56.8681 16.8439 56.8477 16.732 56.8477M16.616 58.7161C16.6612 58.716 16.7063 58.7158 16.7515 58.7153L16.7435 57.9453L16.732 56.8477M16.616 58.7161C14.4288 58.7182 12.2405 58.2174 10.2727 57.2675C8.27009 56.3007 6.47753 54.8696 5.09867 53.1162C3.7235 51.3674 2.74513 49.2947 2.27798 47.1099C1.81202 44.9307 1.84634 42.6377 2.38342 40.4769C2.91916 38.3215 3.95422 36.2715 5.3926 34.5635C6.82294 32.865 8.64976 31.4776 10.6985 30.5758C12.7368 29.6786 14.9813 29.248 17.2074 29.3296C18.0943 29.3621 18.9781 29.4775 19.844 29.6706L44.0934 7.11205C43.4727 6.55219 42.7706 6.11449 41.9972 5.79893C41.1018 5.4223 40.1453 5.23907 39.1787 5.23907C38.212 5.23907 37.2555 5.43248 36.3601 5.79893C35.4647 6.17556 34.6507 6.70488 33.9689 7.39707C33.277 8.08926 32.7377 8.89341 32.3714 9.78918C31.9949 10.685 31.8118 11.6418 31.8118 12.6088C31.8118 13.5759 32.0051 14.5327 32.3714 15.4285C32.6563 16.1105 33.0328 16.7518 33.511 17.3116M16.616 58.7161L16.5207 58.6875C16.5534 58.6973 16.6247 58.7154 16.732 58.7154V57.9836V56.8477M16.732 56.8477C14.7885 56.8681 12.8348 56.4304 11.0847 55.5855C9.3345 54.7406 7.76751 53.4886 6.56682 51.9617C5.36613 50.4348 4.51141 48.6229 4.1044 46.7194C3.69738 44.8159 3.72791 42.8106 4.19597 40.9274C4.66404 39.0443 5.56964 37.2527 6.8212 35.7665C8.07277 34.2804 9.67029 33.0691 11.451 32.2853C13.2316 31.5015 15.1955 31.1248 17.139 31.1961C19.0824 31.2673 21.0158 31.7967 22.7252 32.7128C23.2136 32.9774 23.8343 32.7942 24.0989 32.2954C24.2108 32.0817 24.2413 31.8475 24.2006 31.6236C24.1498 31.3284 23.9869 31.0637 23.7224 30.9009C22.8473 30.3614 22.1147 29.6692 21.5245 28.8243C20.9445 27.9794 20.5375 27.043 20.3442 26.0352C20.1509 25.0275 20.161 24.0096 20.3849 23.012C20.6087 22.0042 21.0361 21.0779 21.6365 20.2534C22.247 19.4289 22.9999 18.7469 23.8852 18.2278C24.7704 17.7188 25.7371 17.3931 26.7546 17.2811C27.7722 17.1691 28.7897 17.2607 29.7665 17.5661C30.5907 17.8206 31.364 18.2176 32.056 18.7469M53.5055 6.57255C53.9437 7.02746 54.35 7.51262 54.7189 8.02392C54.7949 7.9395 54.8688 7.85411 54.9405 7.76796L53.5055 6.57255ZM53.5055 6.57255L52.4765 7.56376C52.857 7.27618 53.2 6.93935 53.5055 6.57255ZM45.5211 5.90879L44.9892 6.44041L44.2053 7.22402L44.7397 6.6275L45.4513 5.83319M45.5211 5.90879C45.5414 5.93241 45.564 5.9601 45.5877 5.99172L45.5236 5.90624M45.5211 5.90879C45.5032 5.88804 45.4871 5.87044 45.4735 5.85611C45.4655 5.84762 45.458 5.83993 45.4513 5.83319M45.5211 5.90879L45.5236 5.90624M45.5236 5.90624L45.5262 5.90365C45.5202 5.89762 45.5143 5.8918 45.5086 5.88619M45.5236 5.90624L45.5086 5.88619M45.5086 5.88619L45.5023 5.87782C45.4935 5.87008 45.4846 5.86229 45.4757 5.85447M45.5086 5.88619C45.4968 5.87458 45.4857 5.86393 45.4757 5.85447M45.4757 5.85447C45.4611 5.8406 45.4489 5.82928 45.4402 5.82126L45.4211 5.80374L45.4201 5.80289C45.423 5.80559 45.4347 5.81648 45.4513 5.83319M45.4757 5.85447C45.4677 5.84731 45.4596 5.84013 45.4515 5.83291L45.4513 5.83319M32.056 18.7469C32.0967 18.7774 32.1475 18.808 32.1882 18.8283C32.5546 19.0523 33.0328 19.0319 33.3788 18.7469M32.056 18.7469L32.4806 18.1919L32.526 18.153L32.6831 18.0188L32.7349 17.9746L33.3788 18.7469M32.056 18.7469L32.4578 18.2113L32.0909 18.5247C31.47 17.7978 30.9972 16.9844 30.648 16.1484L30.6426 16.1354L30.6427 16.1354C30.604 16.041 30.567 15.946 30.5314 15.8504C30.6754 15.8988 30.8181 15.9506 30.9593 16.0059C30.9645 16.0079 30.9696 16.0099 30.9747 16.0119C31.7338 16.3107 32.4523 16.7102 33.1128 17.2045L33.0947 17.1934L33.0238 17.1579C33.0555 17.1738 33.0789 17.1873 33.0963 17.1979C33.0978 17.1988 33.0993 17.1998 33.1009 17.2008C33.0745 17.1876 33.0475 17.1759 33.0199 17.1656C32.7534 17.0665 32.436 17.1037 32.1912 17.3054L32.6633 17.8785L32.6865 17.9066L32.6826 17.9118M33.3788 18.7469C33.8061 18.3906 33.8672 17.7493 33.511 17.3116M33.3788 18.7469L32.7394 17.9708M33.511 17.3116L32.724 17.952L32.7239 17.9521M33.511 17.3116L32.7394 17.9708M32.7394 17.9708L32.5401 18.1016M32.6826 17.9118L32.6602 17.8849L32.1828 17.3123C31.8149 17.619 31.7809 18.1445 32.0623 18.4904L32.5401 18.1016M32.6826 17.9118L32.575 18.0551L32.5401 18.1016M32.6826 17.9118L32.689 17.9195M32.5401 18.1016L32.5597 18.0856L32.5653 18.0811L32.689 17.9195M32.689 17.9195L32.7193 17.9558L32.7239 17.9521M32.689 17.9195L32.6929 17.9144L32.7239 17.9521" stroke="white" stroke-width="3.73541"/>
<path d="M28.6771 36.3882L28.6768 36.3879C27.9813 35.9587 27.7571 35.0408 28.1888 34.3407C28.6178 33.6452 29.5353 33.4206 30.2353 33.8524L28.6771 36.3882ZM28.6771 36.3882L42.3094 44.7844C42.3099 44.7847 42.3103 44.785 42.3108 44.7853C42.548 44.9332 42.8165 45.0081 43.086 45.0081C43.4673 45.0081 43.8561 44.8617 44.1439 44.5606L61.5385 26.8947C61.5389 26.8943 61.5394 26.8939 61.5398 26.8934C62.1236 26.308 62.1009 25.372 61.5283 24.7993C60.9431 24.2138 60.0062 24.2362 59.4331 24.8094L59.4308 24.8118L42.8617 41.6278L30.2357 33.8526L28.6771 36.3882Z" fill="white" stroke="white" stroke-width="0.933852"/>
</svg>
