<?xml version="1.0" standalone="no"?>
<!DOCTYPE svg PUBLIC "-//W3C//DTD SVG 20010904//EN"
 "http://www.w3.org/TR/2001/REC-SVG-20010904/DTD/svg10.dtd">
<svg version="1.0" xmlns="http://www.w3.org/2000/svg"
 width="1168.000000pt" height="1168.000000pt" viewBox="0 0 1168.000000 1168.000000"
 preserveAspectRatio="xMidYMid meet">
<metadata>
Created by potrace 1.14, written by Peter Selinger 2001-2017
</metadata>
<g transform="translate(0.000000,1168.000000) scale(0.100000,-0.100000)"
fill="#000000" stroke="none">
<path d="M5598 11407 c-142 -144 -258 -265 -258 -269 0 -5 -4 -8 -9 -8 -4 0
-55 -48 -112 -106 -350 -355 -582 -591 -741 -751 l-181 -183 -193 193 c-107
105 -198 193 -203 195 -5 2 -26 -16 -48 -39 -50 -55 -163 -177 -235 -253 -32
-34 -58 -64 -58 -68 0 -5 -5 -8 -11 -8 -7 0 -267 257 -580 570 -312 314 -574
570 -583 570 -10 0 -16 -10 -17 -27 -1 -16 -3 -41 -4 -58 -10 -92 -23 -416
-30 -735 -2 -107 -7 -303 -10 -435 l-5 -240 221 -225 c121 -124 379 -387 572
-584 406 -415 408 -416 417 -416 4 0 87 79 185 175 97 97 181 177 185 178 5 1
89 -78 188 -175 98 -98 182 -178 186 -178 6 0 169 164 1103 1108 l468 473 67
-68 c789 -798 1329 -1331 1463 -1444 22 -19 46 -40 53 -46 10 -10 19 -10 35
-2 40 21 131 102 238 212 l106 109 116 -115 c64 -63 117 -113 117 -111 0 2 12
-8 28 -23 15 -14 45 -38 68 -54 l41 -28 35 24 c53 36 138 116 423 397 143 142
261 258 262 258 2 0 20 19 42 43 21 23 125 129 230 236 l191 194 0 788 c0 434
-2 789 -5 789 -3 0 -178 -174 -388 -386 -210 -212 -473 -478 -585 -590 l-202
-205 -185 187 c-207 209 -183 198 -259 115 -23 -24 -98 -102 -167 -174 l-125
-129 -272 273 c-239 242 -661 668 -1141 1154 -84 85 -158 155 -165 155 -6 0
-127 -119 -268 -263z"/>
<path d="M6261 4449 l0 -4444 578 584 578 584 1 2436 c0 1340 1 2444 1 2455 1
13 65 -44 204 -183 l202 -201 30 33 c17 18 59 66 95 107 104 121 203 210 214
192 13 -22 22 -239 31 -806 3 -180 8 -332 11 -337 3 -5 1 -9 -4 -9 -4 0 -5
-24 -2 -52 4 -29 4 -54 0 -56 -4 -1 -4 -22 -1 -45 3 -23 6 -646 6 -1384 0
-739 1 -1343 4 -1343 2 0 145 143 318 318 173 174 431 434 573 578 l260 261 0
2879 0 2879 -403 -407 c-1102 -1115 -1117 -1129 -1131 -1121 -39 23 -418 389
-1021 987 -258 257 -486 483 -507 503 l-37 36 0 -4444z"/>
<path d="M2369 8858 c-20 -268 -31 -1572 -41 -4898 l-2 -775 601 -604 c458
-461 601 -599 604 -585 2 10 4 579 3 1262 l0 1244 133 131 c73 73 138 134 143
135 6 2 10 8 10 13 0 11 72 78 84 79 5 0 96 -87 201 -194 l191 -194 1 -184 c1
-101 4 -583 8 -1073 4 -490 8 -1145 10 -1457 2 -489 5 -571 18 -590 8 -13 149
-158 312 -323 640 -648 815 -824 823 -829 4 -2 7 1078 7 2401 l0 2406 -210
213 c-116 118 -297 302 -403 410 l-193 197 25 26 c26 27 338 345 621 633 l161
163 -2 925 c-2 883 -5 1124 -19 1360 -7 114 -10 124 -30 113 -43 -25 -455
-430 -983 -967 l-124 -125 0 -49 c1 -27 2 -53 3 -58 1 -5 0 -13 -1 -19 -2 -14
-2 -287 0 -300 1 -5 2 -12 1 -15 -1 -3 -3 -85 -4 -182 l-2 -177 -382 -385
c-211 -211 -386 -387 -391 -390 -4 -2 -8 341 -8 763 l0 768 -290 292 c-525
530 -852 851 -868 851 -3 0 -6 -6 -7 -12z"/>
</g>
</svg>
