<svg width="1616" height="921" viewBox="0 0 1616 921" fill="none" xmlns="http://www.w3.org/2000/svg">
<g opacity="0.2">
<rect x="238" y="73" width="5" height="12" rx="2.5" fill="#0A0A0A"/>
<rect x="880" y="909" width="5" height="12" rx="2.5" fill="#0A0A0A"/>
<rect x="301" y="753" width="5" height="12" rx="2.5" fill="#0A0A0A"/>
<rect x="213" y="601" width="5" height="12" rx="2.5" fill="#0A0A0A"/>
<rect x="572" width="5" height="12" rx="2.5" fill="#0A0A0A"/>
<rect x="401" y="398" width="4" height="9" rx="2" fill="#0A0A0A"/>
<rect x="149" y="302" width="4" height="9" rx="2" fill="#0A0A0A"/>
<rect y="176" width="4" height="9" rx="2" fill="#0A0A0A"/>
<rect x="29" y="673" width="5" height="9" rx="2.5" fill="#0A0A0A"/>
<rect x="633" y="816" width="5" height="9" rx="2.5" fill="#0A0A0A"/>
<rect x="808" y="176" width="5" height="9" rx="2.5" fill="#0A0A0A"/>
<rect width="5" height="12" rx="2.5" transform="matrix(-1 0 0 1 1378 73)" fill="#0A0A0A"/>
<rect width="5" height="12" rx="2.5" transform="matrix(-1 0 0 1 1315 753)" fill="#0A0A0A"/>
<rect width="5" height="12" rx="2.5" transform="matrix(-1 0 0 1 1403 601)" fill="#0A0A0A"/>
<rect width="5" height="12" rx="2.5" transform="matrix(-1 0 0 1 1044 0)" fill="#0A0A0A"/>
<rect width="4" height="9" rx="2" transform="matrix(-1 0 0 1 1215 398)" fill="#0A0A0A"/>
<rect width="4" height="9" rx="2" transform="matrix(-1 0 0 1 1467 302)" fill="#0A0A0A"/>
<rect width="4" height="9" rx="2" transform="matrix(-1 0 0 1 1616 176)" fill="#0A0A0A"/>
<rect width="5" height="9" rx="2.5" transform="matrix(-1 0 0 1 1587 673)" fill="#0A0A0A"/>
<rect width="5" height="9" rx="2.5" transform="matrix(-1 0 0 1 810 710)" fill="#0A0A0A"/>
<rect width="5" height="9" rx="2.5" transform="matrix(-1 0 0 1 983 816)" fill="#0A0A0A"/>
</g>
</svg>
