<svg width="17" height="17" viewBox="0 0 17 17" fill="none" xmlns="http://www.w3.org/2000/svg">
<path d="M8.23389 0.95105C3.82251 0.95105 0.233887 4.53967 0.233887 8.95105C0.233887 13.3624 3.82251 16.951 8.23389 16.951C12.6453 16.951 16.2339 13.3624 16.2339 8.95105C16.2339 4.53967 12.6453 0.95105 8.23389 0.95105ZM12.0386 13.089C11.9086 13.219 11.7379 13.2844 11.5673 13.2844C11.3966 13.2844 11.2258 13.219 11.0959 13.089L7.76257 9.75574C7.63721 9.6311 7.56726 9.46167 7.56726 9.28442V4.95105C7.56726 4.5824 7.86584 4.28442 8.23389 4.28442C8.60193 4.28442 8.90051 4.5824 8.90051 4.95105V9.00842L12.0386 12.1464C12.2992 12.4071 12.2992 12.8284 12.0386 13.089Z" fill="#0C0B0B"/>
</svg>
