<svg width="63" height="32" viewBox="0 0 63 32" fill="none" xmlns="http://www.w3.org/2000/svg">
<path d="M0 16C0 7.16344 7.16345 0 16 0H47C55.8366 0 63 7.16344 63 16V16C63 24.8366 55.8366 32 47 32H16C7.16344 32 0 24.8366 0 16V16Z" fill="#F64775"/>
<path d="M18.5259 11.0186L18.5757 12.1475C19.2619 11.2842 20.1584 10.8525 21.2651 10.8525C23.1632 10.8525 24.1206 11.9233 24.1372 14.0649V20H22.6016V14.0566C22.596 13.4092 22.4466 12.9305 22.1533 12.6206C21.8656 12.3107 21.4146 12.1558 20.8003 12.1558C20.3022 12.1558 19.8651 12.2886 19.4888 12.5542C19.1125 12.8198 18.8192 13.1685 18.6089 13.6001V20H17.0732V11.0186H18.5259ZM30.1802 20.166C28.9627 20.166 27.9722 19.7676 27.2085 18.9707C26.4448 18.1683 26.063 17.0975 26.063 15.7583V15.4761C26.063 14.5851 26.2318 13.791 26.5693 13.0938C26.9124 12.391 27.3883 11.8431 27.9971 11.4502C28.6113 11.0518 29.2754 10.8525 29.9893 10.8525C31.1569 10.8525 32.0645 11.2371 32.7119 12.0063C33.3594 12.7756 33.6831 13.8768 33.6831 15.3101V15.9492H27.5986C27.6208 16.8346 27.8781 17.5513 28.3706 18.0991C28.8687 18.6414 29.4995 18.9126 30.2632 18.9126C30.8055 18.9126 31.2648 18.8019 31.6411 18.5806C32.0174 18.3592 32.3467 18.0659 32.6289 17.7007L33.5669 18.4312C32.8143 19.5877 31.6854 20.166 30.1802 20.166ZM29.9893 12.1143C29.3695 12.1143 28.8493 12.3411 28.4287 12.7949C28.0081 13.2432 27.748 13.874 27.6484 14.6875H32.1475V14.5713C32.1032 13.791 31.8929 13.1878 31.5166 12.7617C31.1403 12.3301 30.6312 12.1143 29.9893 12.1143ZM43.4199 17.8833L45.1465 11.0186H46.6821L44.0674 20H42.8223L40.6392 13.1934L38.5142 20H37.269L34.6626 11.0186H36.1899L37.958 17.7422L40.0498 11.0186H41.2866L43.4199 17.8833Z" fill="white"/>
</svg>
