<svg width="15" height="50" viewBox="0 0 15 50" fill="none" xmlns="http://www.w3.org/2000/svg">
<path fill-rule="evenodd" clip-rule="evenodd" d="M8.95866 30.593L2.91731 36.3882L4.42383 37.868L5.93069 39.3481L4.46899 40.6622L3.00765 41.9764L7.40306 46.1883C9.82074 48.505 11.7981 50.4794 11.7974 50.5761C11.7967 50.6727 9.22646 50.8077 6.0854 50.876L0.374804 51L-4.3126 46.534L-9 42.0679L-7.59734 40.6882L-6.19467 39.3085L-7.59022 37.9359L-8.98577 36.5634L-2.95403 30.7624L-6.92229 24.9614L-2.87544 19.2359C-6.1495 16.087 -8.82858 13.3502 -8.82858 13.1541C-8.82858 12.9583 -8.26737 12.2755 -7.58169 11.6371L-6.33479 10.4763L-7.58169 9.24997C-8.26737 8.57531 -8.82858 7.87401 -8.82858 7.69126C-8.82858 7.50851 -6.86577 5.47806 -4.46695 3.17945L-0.104959 -0.999997L5.9307 -0.999997L11.9663 -0.999996L7.43685 3.36015L2.90736 7.72064L4.33598 9.09249L5.76461 10.4647L4.32958 11.8106L2.89455 13.1565L8.94728 18.9773L15 24.7978L8.95866 30.593Z" fill="#BF2A09"/>
</svg>
