<svg version="1.1"
      xmlns="http://www.w3.org/2000/svg"
      xmlns:xlink="http://www.w3.org/1999/xlink"  id="snapshot-32693" width="250" height="250" viewBox="0 0 250 250"><desc>This image was made on Patterninja.com</desc><defs>
<!-- image 01672 -->
<g id="transformed-01672" data-image="01672" transform="translate(98.12216097620083, 177.61708002275392) rotate(354, 23.127839023799176, 32.48291997724606)"><g><svg version="1.1" width="46.25567804759835px" height="64.96583995449213px" viewBox="0 0 46.25567804759835 64.96583995449213"><g id="original-01672"><svg xmlns="http://www.w3.org/2000/svg" fill="none" viewBox="0 0 45 63" xmlns:xlink="http://www.w3.org/1999/xlink" version="1.1" preserveAspectRatio="xMidYMid meet">
  <path fill-rule="evenodd" d="M15.08 6.5l-3.31 4.86-1.217-.853-1.216-.854-.74 1.165-.74 1.165L4.383 9.48C2.47 8.102.852 6.985.784 6.997c-.068.013.151 1.795.486 3.962l.608 3.939 3.689 2.673 3.688 2.674.793-1.133.792-1.133 1.129.791 1.128.79 3.315-4.854 3.316-4.855 4.722 3.389c2.597 1.863 4.833 3.369 4.97 3.345.137-.024.545-.493.907-1.043l.66-.999 1.007.707c.554.388 1.112.688 1.24.666.128-.023 1.306-1.62 2.619-3.55l2.387-3.51-.735-4.146L36.77.563l-2.492 3.646-2.493 3.646-1.132-.813-1.132-.814-.765 1.151-.765 1.151-4.8-3.446-4.8-3.445-3.31 4.86zM5.402 34.343l2.585 14.853 3.674 2.627 3.674 2.627-1.17-6.606-1.17-6.605.787-1.127.788-1.126 1.193.857 1.193.857 1.587 8.6 1.586 8.6 3.52 2.53 3.521 2.53-2.228-12.578-2.229-12.579-2.461-1.778-2.462-1.777 1.702-2.509 1.702-2.508-1.114-6.288c-.612-3.458-1.196-6.273-1.296-6.255-.1.017-1.213 1.546-2.472 3.398l-2.289 3.366.368 2.079.369 2.079-1.661 2.422-1.661 2.422-.714-4.03-.715-4.031-3.454-2.477c-1.9-1.362-3.518-2.465-3.596-2.451-.078.013 1.021 6.708 2.443 14.878zm21.71 4.693l4.112 23.208 2.44-3.57 2.442-3.57-2.272-12.823-2.272-12.823 1.241.875 1.242.875.603-1.02c.331-.561.698-1.037.816-1.058.123-.021 1.01 4.462 2.086 10.528l1.872 10.565 2.44-3.57 2.442-3.57-2.663-15.03-2.663-15.03-3.217 4.71-3.216 4.71-.908-.58c-.5-.32-2.648-1.808-4.773-3.308L23 15.83l4.112 23.207z" clip-rule="evenodd" fill="rgba(71, 45, 28, 0.2)" stroke="none"/>
</svg>
</g></svg></g></g>
<!-- /image 01672 -->

<!-- image 28087 -->
<g id="transformed-28087" data-image="28087" transform="translate(131.73216097620084, 93.18708002275395) rotate(354, 23.127839023799176, 32.48291997724606)"><g><svg version="1.1" width="46.25567804759835px" height="64.96583995449213px" viewBox="0 0 46.25567804759835 64.96583995449213"><g id="original-28087"><svg xmlns="http://www.w3.org/2000/svg" fill="none" viewBox="0 0 45 63" xmlns:xlink="http://www.w3.org/1999/xlink" version="1.1" preserveAspectRatio="xMidYMid meet">
  <path fill-rule="evenodd" d="M15.08 6.5l-3.31 4.86-1.217-.853-1.216-.854-.74 1.165-.74 1.165L4.383 9.48C2.47 8.102.852 6.985.784 6.997c-.068.013.151 1.795.486 3.962l.608 3.939 3.689 2.673 3.688 2.674.793-1.133.792-1.133 1.129.791 1.128.79 3.315-4.854 3.316-4.855 4.722 3.389c2.597 1.863 4.833 3.369 4.97 3.345.137-.024.545-.493.907-1.043l.66-.999 1.007.707c.554.388 1.112.688 1.24.666.128-.023 1.306-1.62 2.619-3.55l2.387-3.51-.735-4.146L36.77.563l-2.492 3.646-2.493 3.646-1.132-.813-1.132-.814-.765 1.151-.765 1.151-4.8-3.446-4.8-3.445-3.31 4.86zM5.402 34.343l2.585 14.853 3.674 2.627 3.674 2.627-1.17-6.606-1.17-6.605.787-1.127.788-1.126 1.193.857 1.193.857 1.587 8.6 1.586 8.6 3.52 2.53 3.521 2.53-2.228-12.578-2.229-12.579-2.461-1.778-2.462-1.777 1.702-2.509 1.702-2.508-1.114-6.288c-.612-3.458-1.196-6.273-1.296-6.255-.1.017-1.213 1.546-2.472 3.398l-2.289 3.366.368 2.079.369 2.079-1.661 2.422-1.661 2.422-.714-4.03-.715-4.031-3.454-2.477c-1.9-1.362-3.518-2.465-3.596-2.451-.078.013 1.021 6.708 2.443 14.878zm21.71 4.693l4.112 23.208 2.44-3.57 2.442-3.57-2.272-12.823-2.272-12.823 1.241.875 1.242.875.603-1.02c.331-.561.698-1.037.816-1.058.123-.021 1.01 4.462 2.086 10.528l1.872 10.565 2.44-3.57 2.442-3.57-2.663-15.03-2.663-15.03-3.217 4.71-3.216 4.71-.908-.58c-.5-.32-2.648-1.808-4.773-3.308L23 15.83l4.112 23.207z" clip-rule="evenodd" fill="rgba(71, 45, 28, 0.2)" stroke="none"/>
</svg>
</g></svg></g></g>
<!-- /image 28087 -->

<!-- image 48106 -->
<g id="transformed-48106" data-image="48106" transform="translate(192.62216097620083, 149.56708002275394) rotate(354, 23.127839023799176, 32.48291997724606)"><g><svg version="1.1" width="46.25567804759835px" height="64.96583995449213px" viewBox="0 0 46.25567804759835 64.96583995449213"><g id="original-48106"><svg xmlns="http://www.w3.org/2000/svg" fill="none" viewBox="0 0 45 63" xmlns:xlink="http://www.w3.org/1999/xlink" version="1.1" preserveAspectRatio="xMidYMid meet">
  <path fill-rule="evenodd" d="M15.08 6.5l-3.31 4.86-1.217-.853-1.216-.854-.74 1.165-.74 1.165L4.383 9.48C2.47 8.102.852 6.985.784 6.997c-.068.013.151 1.795.486 3.962l.608 3.939 3.689 2.673 3.688 2.674.793-1.133.792-1.133 1.129.791 1.128.79 3.315-4.854 3.316-4.855 4.722 3.389c2.597 1.863 4.833 3.369 4.97 3.345.137-.024.545-.493.907-1.043l.66-.999 1.007.707c.554.388 1.112.688 1.24.666.128-.023 1.306-1.62 2.619-3.55l2.387-3.51-.735-4.146L36.77.563l-2.492 3.646-2.493 3.646-1.132-.813-1.132-.814-.765 1.151-.765 1.151-4.8-3.446-4.8-3.445-3.31 4.86zM5.402 34.343l2.585 14.853 3.674 2.627 3.674 2.627-1.17-6.606-1.17-6.605.787-1.127.788-1.126 1.193.857 1.193.857 1.587 8.6 1.586 8.6 3.52 2.53 3.521 2.53-2.228-12.578-2.229-12.579-2.461-1.778-2.462-1.777 1.702-2.509 1.702-2.508-1.114-6.288c-.612-3.458-1.196-6.273-1.296-6.255-.1.017-1.213 1.546-2.472 3.398l-2.289 3.366.368 2.079.369 2.079-1.661 2.422-1.661 2.422-.714-4.03-.715-4.031-3.454-2.477c-1.9-1.362-3.518-2.465-3.596-2.451-.078.013 1.021 6.708 2.443 14.878zm21.71 4.693l4.112 23.208 2.44-3.57 2.442-3.57-2.272-12.823-2.272-12.823 1.241.875 1.242.875.603-1.02c.331-.561.698-1.037.816-1.058.123-.021 1.01 4.462 2.086 10.528l1.872 10.565 2.44-3.57 2.442-3.57-2.663-15.03-2.663-15.03-3.217 4.71-3.216 4.71-.908-.58c-.5-.32-2.648-1.808-4.773-3.308L23 15.83l4.112 23.207z" clip-rule="evenodd" fill="rgba(71, 45, 28, 0.2)" stroke="none"/>
</svg>
</g></svg></g></g>
<!-- /image 48106 -->

<!-- image 48479 -->
<g id="transformed-48479" data-image="48479" transform="translate(34.13216097620082, 121.52708002275392) rotate(354, 23.127839023799176, 32.48291997724606)"><g><svg version="1.1" width="46.25567804759835px" height="64.96583995449213px" viewBox="0 0 46.25567804759835 64.96583995449213"><g id="original-48479"><svg xmlns="http://www.w3.org/2000/svg" fill="none" viewBox="0 0 45 63" xmlns:xlink="http://www.w3.org/1999/xlink" version="1.1" preserveAspectRatio="xMidYMid meet">
  <path fill-rule="evenodd" d="M15.08 6.5l-3.31 4.86-1.217-.853-1.216-.854-.74 1.165-.74 1.165L4.383 9.48C2.47 8.102.852 6.985.784 6.997c-.068.013.151 1.795.486 3.962l.608 3.939 3.689 2.673 3.688 2.674.793-1.133.792-1.133 1.129.791 1.128.79 3.315-4.854 3.316-4.855 4.722 3.389c2.597 1.863 4.833 3.369 4.97 3.345.137-.024.545-.493.907-1.043l.66-.999 1.007.707c.554.388 1.112.688 1.24.666.128-.023 1.306-1.62 2.619-3.55l2.387-3.51-.735-4.146L36.77.563l-2.492 3.646-2.493 3.646-1.132-.813-1.132-.814-.765 1.151-.765 1.151-4.8-3.446-4.8-3.445-3.31 4.86zM5.402 34.343l2.585 14.853 3.674 2.627 3.674 2.627-1.17-6.606-1.17-6.605.787-1.127.788-1.126 1.193.857 1.193.857 1.587 8.6 1.586 8.6 3.52 2.53 3.521 2.53-2.228-12.578-2.229-12.579-2.461-1.778-2.462-1.777 1.702-2.509 1.702-2.508-1.114-6.288c-.612-3.458-1.196-6.273-1.296-6.255-.1.017-1.213 1.546-2.472 3.398l-2.289 3.366.368 2.079.369 2.079-1.661 2.422-1.661 2.422-.714-4.03-.715-4.031-3.454-2.477c-1.9-1.362-3.518-2.465-3.596-2.451-.078.013 1.021 6.708 2.443 14.878zm21.71 4.693l4.112 23.208 2.44-3.57 2.442-3.57-2.272-12.823-2.272-12.823 1.241.875 1.242.875.603-1.02c.331-.561.698-1.037.816-1.058.123-.021 1.01 4.462 2.086 10.528l1.872 10.565 2.44-3.57 2.442-3.57-2.663-15.03-2.663-15.03-3.217 4.71-3.216 4.71-.908-.58c-.5-.32-2.648-1.808-4.773-3.308L23 15.83l4.112 23.207z" clip-rule="evenodd" fill="rgba(71, 45, 28, 0.2)" stroke="none"/>
</svg>
</g></svg></g></g>
<!-- /image 48479 -->

<!-- image 54323 -->
<g id="transformed-54323" data-image="54323" transform="translate(59.86216097620082, 27.32708002275394) rotate(354, 23.127839023799176, 32.48291997724606)"><g><svg version="1.1" width="46.25567804759835px" height="64.96583995449213px" viewBox="0 0 46.25567804759835 64.96583995449213"><g id="original-54323"><svg xmlns="http://www.w3.org/2000/svg" fill="none" viewBox="0 0 45 63" xmlns:xlink="http://www.w3.org/1999/xlink" version="1.1" preserveAspectRatio="xMidYMid meet">
  <path fill-rule="evenodd" d="M15.08 6.5l-3.31 4.86-1.217-.853-1.216-.854-.74 1.165-.74 1.165L4.383 9.48C2.47 8.102.852 6.985.784 6.997c-.068.013.151 1.795.486 3.962l.608 3.939 3.689 2.673 3.688 2.674.793-1.133.792-1.133 1.129.791 1.128.79 3.315-4.854 3.316-4.855 4.722 3.389c2.597 1.863 4.833 3.369 4.97 3.345.137-.024.545-.493.907-1.043l.66-.999 1.007.707c.554.388 1.112.688 1.24.666.128-.023 1.306-1.62 2.619-3.55l2.387-3.51-.735-4.146L36.77.563l-2.492 3.646-2.493 3.646-1.132-.813-1.132-.814-.765 1.151-.765 1.151-4.8-3.446-4.8-3.445-3.31 4.86zM5.402 34.343l2.585 14.853 3.674 2.627 3.674 2.627-1.17-6.606-1.17-6.605.787-1.127.788-1.126 1.193.857 1.193.857 1.587 8.6 1.586 8.6 3.52 2.53 3.521 2.53-2.228-12.578-2.229-12.579-2.461-1.778-2.462-1.777 1.702-2.509 1.702-2.508-1.114-6.288c-.612-3.458-1.196-6.273-1.296-6.255-.1.017-1.213 1.546-2.472 3.398l-2.289 3.366.368 2.079.369 2.079-1.661 2.422-1.661 2.422-.714-4.03-.715-4.031-3.454-2.477c-1.9-1.362-3.518-2.465-3.596-2.451-.078.013 1.021 6.708 2.443 14.878zm21.71 4.693l4.112 23.208 2.44-3.57 2.442-3.57-2.272-12.823-2.272-12.823 1.241.875 1.242.875.603-1.02c.331-.561.698-1.037.816-1.058.123-.021 1.01 4.462 2.086 10.528l1.872 10.565 2.44-3.57 2.442-3.57-2.663-15.03-2.663-15.03-3.217 4.71-3.216 4.71-.908-.58c-.5-.32-2.648-1.808-4.773-3.308L23 15.83l4.112 23.207z" clip-rule="evenodd" fill="rgba(71, 45, 28, 0.2)" stroke="none"/>
</svg>
</g></svg></g></g>
<!-- /image 54323 -->

<!-- image 18594 -->
<g id="transformed-18594" data-image="18594" transform="translate(213.02216097620084, 55.66708002275394) rotate(354, 23.127839023799176, 32.48291997724606)"><g><svg version="1.1" width="46.25567804759835px" height="64.96583995449213px" viewBox="0 0 46.25567804759835 64.96583995449213"><g id="original-18594"><svg xmlns="http://www.w3.org/2000/svg" fill="none" viewBox="0 0 45 63" xmlns:xlink="http://www.w3.org/1999/xlink" version="1.1" preserveAspectRatio="xMidYMid meet">
  <path fill-rule="evenodd" d="M15.08 6.5l-3.31 4.86-1.217-.853-1.216-.854-.74 1.165-.74 1.165L4.383 9.48C2.47 8.102.852 6.985.784 6.997c-.068.013.151 1.795.486 3.962l.608 3.939 3.689 2.673 3.688 2.674.793-1.133.792-1.133 1.129.791 1.128.79 3.315-4.854 3.316-4.855 4.722 3.389c2.597 1.863 4.833 3.369 4.97 3.345.137-.024.545-.493.907-1.043l.66-.999 1.007.707c.554.388 1.112.688 1.24.666.128-.023 1.306-1.62 2.619-3.55l2.387-3.51-.735-4.146L36.77.563l-2.492 3.646-2.493 3.646-1.132-.813-1.132-.814-.765 1.151-.765 1.151-4.8-3.446-4.8-3.445-3.31 4.86zM5.402 34.343l2.585 14.853 3.674 2.627 3.674 2.627-1.17-6.606-1.17-6.605.787-1.127.788-1.126 1.193.857 1.193.857 1.587 8.6 1.586 8.6 3.52 2.53 3.521 2.53-2.228-12.578-2.229-12.579-2.461-1.778-2.462-1.777 1.702-2.509 1.702-2.508-1.114-6.288c-.612-3.458-1.196-6.273-1.296-6.255-.1.017-1.213 1.546-2.472 3.398l-2.289 3.366.368 2.079.369 2.079-1.661 2.422-1.661 2.422-.714-4.03-.715-4.031-3.454-2.477c-1.9-1.362-3.518-2.465-3.596-2.451-.078.013 1.021 6.708 2.443 14.878zm21.71 4.693l4.112 23.208 2.44-3.57 2.442-3.57-2.272-12.823-2.272-12.823 1.241.875 1.242.875.603-1.02c.331-.561.698-1.037.816-1.058.123-.021 1.01 4.462 2.086 10.528l1.872 10.565 2.44-3.57 2.442-3.57-2.663-15.03-2.663-15.03-3.217 4.71-3.216 4.71-.908-.58c-.5-.32-2.648-1.808-4.773-3.308L23 15.83l4.112 23.207z" clip-rule="evenodd" fill="rgba(71, 45, 28, 0.2)" stroke="none"/>
</svg>
</g></svg></g></g>
<!-- /image 18594 -->

<!-- image 66093 -->
<g id="transformed-66093" data-image="66093" transform="translate(141.38216097620082, -0.17291997724606034) rotate(354, 23.127839023799176, 32.48291997724606)"><g><svg version="1.1" width="46.25567804759835px" height="64.96583995449213px" viewBox="0 0 46.25567804759835 64.96583995449213"><g id="original-66093"><svg xmlns="http://www.w3.org/2000/svg" fill="none" viewBox="0 0 45 63" xmlns:xlink="http://www.w3.org/1999/xlink" version="1.1" preserveAspectRatio="xMidYMid meet">
  <path fill-rule="evenodd" d="M15.08 6.5l-3.31 4.86-1.217-.853-1.216-.854-.74 1.165-.74 1.165L4.383 9.48C2.47 8.102.852 6.985.784 6.997c-.068.013.151 1.795.486 3.962l.608 3.939 3.689 2.673 3.688 2.674.793-1.133.792-1.133 1.129.791 1.128.79 3.315-4.854 3.316-4.855 4.722 3.389c2.597 1.863 4.833 3.369 4.97 3.345.137-.024.545-.493.907-1.043l.66-.999 1.007.707c.554.388 1.112.688 1.24.666.128-.023 1.306-1.62 2.619-3.55l2.387-3.51-.735-4.146L36.77.563l-2.492 3.646-2.493 3.646-1.132-.813-1.132-.814-.765 1.151-.765 1.151-4.8-3.446-4.8-3.445-3.31 4.86zM5.402 34.343l2.585 14.853 3.674 2.627 3.674 2.627-1.17-6.606-1.17-6.605.787-1.127.788-1.126 1.193.857 1.193.857 1.587 8.6 1.586 8.6 3.52 2.53 3.521 2.53-2.228-12.578-2.229-12.579-2.461-1.778-2.462-1.777 1.702-2.509 1.702-2.508-1.114-6.288c-.612-3.458-1.196-6.273-1.296-6.255-.1.017-1.213 1.546-2.472 3.398l-2.289 3.366.368 2.079.369 2.079-1.661 2.422-1.661 2.422-.714-4.03-.715-4.031-3.454-2.477c-1.9-1.362-3.518-2.465-3.596-2.451-.078.013 1.021 6.708 2.443 14.878zm21.71 4.693l4.112 23.208 2.44-3.57 2.442-3.57-2.272-12.823-2.272-12.823 1.241.875 1.242.875.603-1.02c.331-.561.698-1.037.816-1.058.123-.021 1.01 4.462 2.086 10.528l1.872 10.565 2.44-3.57 2.442-3.57-2.663-15.03-2.663-15.03-3.217 4.71-3.216 4.71-.908-.58c-.5-.32-2.648-1.808-4.773-3.308L23 15.83l4.112 23.207z" clip-rule="evenodd" fill="rgba(71, 45, 28, 0.2)" stroke="none"/>
</svg>
</g></svg></g></g>
<!-- /image 66093 -->

<!-- image 40276 -->
<g id="transformed-40276" data-image="40276" transform="translate(-2.827839023799175, 213.50708002275394) rotate(354, 23.127839023799176, 32.48291997724606)"><g><svg version="1.1" width="46.25567804759835px" height="64.96583995449213px" viewBox="0 0 46.25567804759835 64.96583995449213"><g id="original-40276"><svg xmlns="http://www.w3.org/2000/svg" fill="none" viewBox="0 0 45 63" xmlns:xlink="http://www.w3.org/1999/xlink" version="1.1" preserveAspectRatio="xMidYMid meet">
  <path fill-rule="evenodd" d="M15.08 6.5l-3.31 4.86-1.217-.853-1.216-.854-.74 1.165-.74 1.165L4.383 9.48C2.47 8.102.852 6.985.784 6.997c-.068.013.151 1.795.486 3.962l.608 3.939 3.689 2.673 3.688 2.674.793-1.133.792-1.133 1.129.791 1.128.79 3.315-4.854 3.316-4.855 4.722 3.389c2.597 1.863 4.833 3.369 4.97 3.345.137-.024.545-.493.907-1.043l.66-.999 1.007.707c.554.388 1.112.688 1.24.666.128-.023 1.306-1.62 2.619-3.55l2.387-3.51-.735-4.146L36.77.563l-2.492 3.646-2.493 3.646-1.132-.813-1.132-.814-.765 1.151-.765 1.151-4.8-3.446-4.8-3.445-3.31 4.86zM5.402 34.343l2.585 14.853 3.674 2.627 3.674 2.627-1.17-6.606-1.17-6.605.787-1.127.788-1.126 1.193.857 1.193.857 1.587 8.6 1.586 8.6 3.52 2.53 3.521 2.53-2.228-12.578-2.229-12.579-2.461-1.778-2.462-1.777 1.702-2.509 1.702-2.508-1.114-6.288c-.612-3.458-1.196-6.273-1.296-6.255-.1.017-1.213 1.546-2.472 3.398l-2.289 3.366.368 2.079.369 2.079-1.661 2.422-1.661 2.422-.714-4.03-.715-4.031-3.454-2.477c-1.9-1.362-3.518-2.465-3.596-2.451-.078.013 1.021 6.708 2.443 14.878zm21.71 4.693l4.112 23.208 2.44-3.57 2.442-3.57-2.272-12.823-2.272-12.823 1.241.875 1.242.875.603-1.02c.331-.561.698-1.037.816-1.058.123-.021 1.01 4.462 2.086 10.528l1.872 10.565 2.44-3.57 2.442-3.57-2.663-15.03-2.663-15.03-3.217 4.71-3.216 4.71-.908-.58c-.5-.32-2.648-1.808-4.773-3.308L23 15.83l4.112 23.207z" clip-rule="evenodd" fill="rgba(71, 45, 28, 0.2)" stroke="none"/>
</svg>
</g></svg></g></g>
<!-- /image 40276 -->
</defs><rect x="0" y="0" width="250" height="250" fill="rgba(235, 224, 211, 1)"></rect><use xlink:href="#transformed-01672" transform="translate(-250, -250)"></use><use xlink:href="#transformed-01672" transform="translate(0, -250)"></use><use xlink:href="#transformed-01672" transform="translate(250, -250)"></use><use xlink:href="#transformed-01672" transform="translate(-250, 0)"></use><use xlink:href="#transformed-01672" transform="translate(0, 0)"></use><use xlink:href="#transformed-01672" transform="translate(250, 0)"></use><use xlink:href="#transformed-01672" transform="translate(-250, 250)"></use><use xlink:href="#transformed-01672" transform="translate(0, 250)"></use><use xlink:href="#transformed-01672" transform="translate(250, 250)"></use><use xlink:href="#transformed-28087" transform="translate(-250, -250)"></use><use xlink:href="#transformed-28087" transform="translate(0, -250)"></use><use xlink:href="#transformed-28087" transform="translate(250, -250)"></use><use xlink:href="#transformed-28087" transform="translate(-250, 0)"></use><use xlink:href="#transformed-28087" transform="translate(0, 0)"></use><use xlink:href="#transformed-28087" transform="translate(250, 0)"></use><use xlink:href="#transformed-28087" transform="translate(-250, 250)"></use><use xlink:href="#transformed-28087" transform="translate(0, 250)"></use><use xlink:href="#transformed-28087" transform="translate(250, 250)"></use><use xlink:href="#transformed-48106" transform="translate(-250, -250)"></use><use xlink:href="#transformed-48106" transform="translate(0, -250)"></use><use xlink:href="#transformed-48106" transform="translate(250, -250)"></use><use xlink:href="#transformed-48106" transform="translate(-250, 0)"></use><use xlink:href="#transformed-48106" transform="translate(0, 0)"></use><use xlink:href="#transformed-48106" transform="translate(250, 0)"></use><use xlink:href="#transformed-48106" transform="translate(-250, 250)"></use><use xlink:href="#transformed-48106" transform="translate(0, 250)"></use><use xlink:href="#transformed-48106" transform="translate(250, 250)"></use><use xlink:href="#transformed-48479" transform="translate(-250, -250)"></use><use xlink:href="#transformed-48479" transform="translate(0, -250)"></use><use xlink:href="#transformed-48479" transform="translate(250, -250)"></use><use xlink:href="#transformed-48479" transform="translate(-250, 0)"></use><use xlink:href="#transformed-48479" transform="translate(0, 0)"></use><use xlink:href="#transformed-48479" transform="translate(250, 0)"></use><use xlink:href="#transformed-48479" transform="translate(-250, 250)"></use><use xlink:href="#transformed-48479" transform="translate(0, 250)"></use><use xlink:href="#transformed-48479" transform="translate(250, 250)"></use><use xlink:href="#transformed-54323" transform="translate(-250, -250)"></use><use xlink:href="#transformed-54323" transform="translate(0, -250)"></use><use xlink:href="#transformed-54323" transform="translate(250, -250)"></use><use xlink:href="#transformed-54323" transform="translate(-250, 0)"></use><use xlink:href="#transformed-54323" transform="translate(0, 0)"></use><use xlink:href="#transformed-54323" transform="translate(250, 0)"></use><use xlink:href="#transformed-54323" transform="translate(-250, 250)"></use><use xlink:href="#transformed-54323" transform="translate(0, 250)"></use><use xlink:href="#transformed-54323" transform="translate(250, 250)"></use><use xlink:href="#transformed-18594" transform="translate(-250, -250)"></use><use xlink:href="#transformed-18594" transform="translate(0, -250)"></use><use xlink:href="#transformed-18594" transform="translate(250, -250)"></use><use xlink:href="#transformed-18594" transform="translate(-250, 0)"></use><use xlink:href="#transformed-18594" transform="translate(0, 0)"></use><use xlink:href="#transformed-18594" transform="translate(250, 0)"></use><use xlink:href="#transformed-18594" transform="translate(-250, 250)"></use><use xlink:href="#transformed-18594" transform="translate(0, 250)"></use><use xlink:href="#transformed-18594" transform="translate(250, 250)"></use><use xlink:href="#transformed-66093" transform="translate(-250, -250)"></use><use xlink:href="#transformed-66093" transform="translate(0, -250)"></use><use xlink:href="#transformed-66093" transform="translate(250, -250)"></use><use xlink:href="#transformed-66093" transform="translate(-250, 0)"></use><use xlink:href="#transformed-66093" transform="translate(0, 0)"></use><use xlink:href="#transformed-66093" transform="translate(250, 0)"></use><use xlink:href="#transformed-66093" transform="translate(-250, 250)"></use><use xlink:href="#transformed-66093" transform="translate(0, 250)"></use><use xlink:href="#transformed-66093" transform="translate(250, 250)"></use><use xlink:href="#transformed-40276" transform="translate(-250, -250)"></use><use xlink:href="#transformed-40276" transform="translate(0, -250)"></use><use xlink:href="#transformed-40276" transform="translate(250, -250)"></use><use xlink:href="#transformed-40276" transform="translate(-250, 0)"></use><use xlink:href="#transformed-40276" transform="translate(0, 0)"></use><use xlink:href="#transformed-40276" transform="translate(250, 0)"></use><use xlink:href="#transformed-40276" transform="translate(-250, 250)"></use><use xlink:href="#transformed-40276" transform="translate(0, 250)"></use><use xlink:href="#transformed-40276" transform="translate(250, 250)"></use></svg>