<svg width="1839" height="916" viewBox="0 0 1839 916" fill="none" xmlns="http://www.w3.org/2000/svg">
<path d="M1838.5 -66.0003C1838.5 185.387 1704.75 430.508 1494.9 612.796C1285.07 795.082 999.18 914.5 695 914.5C685.832 914.5 674.621 914.631 661.628 914.783C559.795 915.974 348.495 918.447 153.122 869.077C42.9753 841.244 -62.0615 796.943 -139.555 726.684C-217.031 656.44 -267 560.229 -267 428.5C-267 296.616 -265.725 195.623 -254.311 118.299C-242.898 40.981 -221.357 -12.5881 -180.894 -49.6944C-140.422 -86.8084 -80.941 -107.525 6.52289 -118.95C93.9833 -130.375 209.341 -132.5 361.5 -132.5C486.251 -132.5 621.925 -134.034 758.808 -135.581C955.854 -137.808 1155.4 -140.063 1328.48 -137.813C1475.12 -135.907 1602.73 -130.766 1693.67 -119.637C1739.14 -114.072 1775.41 -107.012 1800.31 -98.1242C1812.76 -93.6794 1822.33 -88.789 1828.77 -83.4247C1835.22 -78.0649 1838.5 -72.2714 1838.5 -66.0003Z" stroke="#EF421A"/>
</svg>
